<?xml version="1.0" standalone="no"?>
<!DOCTYPE svg PUBLIC "-//W3C//DTD SVG 20010904//EN"
 "http://www.w3.org/TR/2001/REC-SVG-20010904/DTD/svg10.dtd">
<svg version="1.0" xmlns="http://www.w3.org/2000/svg"
 width="2048.000000pt" height="2048.000000pt" viewBox="0 0 2048.000000 2048.000000"
 preserveAspectRatio="xMidYMid meet">

<g transform="translate(0.000000,2048.000000) scale(0.100000,-0.100000)"
fill="#000000" stroke="none">
<path d="M4101 19420 c-70 -32 -118 -77 -148 -138 l-28 -57 -3 -600 c-2 -396
1 -624 8 -670 12 -78 43 -139 92 -180 72 -61 62 -60 568 -65 l465 -5 2 -660
c3 -828 8 -1075 28 -1295 92 -1016 381 -1846 888 -2548 171 -237 343 -431 587
-660 154 -145 522 -482 1105 -1011 82 -75 233 -212 335 -306 102 -93 254 -232
338 -308 217 -197 277 -274 352 -457 42 -101 73 -260 65 -327 -12 -96 -55
-237 -101 -330 -81 -164 -103 -188 -529 -574 -99 -90 -256 -233 -350 -319
-258 -236 -648 -593 -760 -694 -112 -102 -165 -151 -417 -384 -689 -636 -1123
-1365 -1352 -2272 -89 -350 -137 -645 -172 -1052 -12 -138 -17 -370 -21 -946
l-5 -762 -452 0 c-427 0 -453 -1 -495 -20 -66 -31 -114 -73 -147 -132 l-29
-53 0 -650 c0 -594 2 -654 18 -700 24 -69 67 -119 131 -150 l53 -26 6150 0
c5551 1 6154 2 6194 16 56 20 122 84 148 145 20 46 20 68 22 697 1 625 0 652
-19 695 -25 58 -75 114 -126 141 -40 22 -51 22 -513 27 l-473 5 -4 730 c-4
763 -12 946 -57 1305 -104 848 -353 1549 -772 2180 -223 335 -456 592 -932
1025 -137 126 -322 294 -410 375 -88 80 -369 336 -625 569 -681 619 -672 611
-736 706 -129 196 -191 429 -155 590 49 218 162 414 319 553 112 99 281 252
422 382 69 63 170 156 225 206 313 285 701 638 845 768 527 478 701 656 911
938 417 559 683 1170 834 1913 102 503 135 971 135 1865 -1 206 -1 473 0 592
l0 217 468 3 c466 3 467 3 515 26 51 26 97 74 127 137 18 38 19 69 21 695 1
720 4 688 -60 769 -16 20 -53 50 -83 67 l-53 29 -6150 2 c-6108 3 -6150 2
-6194 -17z m10857 -2350 c3 -654 -7 -1049 -34 -1345 -79 -878 -338 -1612 -783
-2225 -180 -247 -361 -434 -851 -880 -190 -173 -367 -335 -395 -361 -66 -61
-861 -788 -1046 -957 -81 -73 -174 -163 -208 -202 -130 -146 -249 -354 -310
-540 -53 -164 -66 -249 -65 -415 1 -134 4 -162 32 -266 91 -339 237 -574 516
-824 49 -44 180 -163 291 -265 111 -102 329 -302 485 -445 157 -143 365 -334
464 -425 98 -91 254 -232 345 -314 351 -316 604 -589 783 -846 390 -560 629
-1230 723 -2025 33 -287 37 -391 42 -1152 l5 -783 -4677 0 -4677 0 5 733 c3
402 10 797 16 877 83 1094 379 1904 950 2600 162 198 275 304 1471 1394 102
93 259 237 350 320 91 83 226 206 300 272 270 242 392 399 493 635 123 287
152 530 93 784 -49 210 -140 408 -264 575 -74 99 -118 146 -227 243 -49 44
-133 119 -185 167 -52 48 -255 233 -450 411 -195 178 -508 463 -695 634 -186
170 -364 332 -395 360 -118 105 -347 335 -438 440 -335 385 -574 807 -746
1317 -159 470 -236 918 -266 1543 -11 221 -13 1589 -3 1599 4 3 2108 5 4677 4
l4671 -3 3 -635z"/>
<path d="M13575 14527 c-22 -8 -164 -75 -315 -149 -306 -152 -439 -210 -609
-269 -247 -85 -421 -118 -667 -126 -403 -13 -825 63 -1504 272 -546 168 -837
223 -1301 245 -663 31 -1424 -120 -1995 -395 -106 -51 -138 -72 -167 -107 -64
-79 -82 -171 -50 -264 13 -41 43 -76 182 -218 91 -92 319 -315 506 -495 187
-179 473 -454 635 -611 313 -302 968 -925 1134 -1077 120 -111 201 -216 266
-348 66 -133 94 -221 125 -395 38 -210 90 -306 205 -380 151 -97 404 -96 542
3 107 75 155 171 183 367 19 126 93 329 166 454 84 144 166 241 339 402 114
106 317 300 869 830 446 426 719 686 984 933 114 106 262 250 328 320 174 181
387 472 460 626 65 136 18 289 -110 359 -62 33 -146 43 -206 23z"/>
<path d="M10227 9489 c-124 -30 -205 -122 -214 -244 -9 -110 50 -214 152 -268
50 -27 170 -29 226 -5 207 90 217 396 16 492 -61 29 -127 38 -180 25z"/>
<path d="M10181 8393 c-104 -37 -179 -159 -168 -273 16 -181 177 -287 356
-234 148 43 229 229 162 368 -28 57 -106 128 -159 144 -53 16 -137 14 -191 -5z"/>
<path d="M10020 7343 c-1127 -84 -2139 -648 -2796 -1558 -416 -575 -657 -1246
-705 -1960 -15 -220 -6 -262 79 -345 36 -35 72 -60 98 -68 56 -16 7076 -18
7154 -1 72 15 128 62 167 138 38 72 41 125 22 331 -29 324 -86 601 -184 895
-188 566 -484 1044 -910 1470 -632 633 -1424 1004 -2324 1089 -147 14 -469 19
-601 9z"/>
</g>
</svg>
